# xmcd CD database file
#
# Track frame offsets:
#	150
#	20863
#	39623
#	68893
#	95198
#	114398
#	129482
#	159998
#	178851
#	219623
#
# Disc length: 3170 seconds
#
# Revision: 1
# Processed by: cddbd v1.5.2PL0 Copyright (c) Steve Scherf et al.
# Submitted via: CDex 2.01
#
DISCID=920c600a
DTITLE=Alastair Greene - Live From The 805 - CD2
DYEAR=2018
DGENRE=Blues
TTITLE0=Dream Train
TTITLE1=Back Where I Belong
TTITLE2=T'Other Way
TTITLE3=Last Train Around The Sun
TTITLE4=Love You So Bad
TTITLE5=Rain Stomp
TTITLE6=Big Boss Man
TTITLE7=First Born Son
TTITLE8=Shoe On The Other Foot
TTITLE9=Walking In Circles
EXTD=YEAR: 2018
EXTT0=
EXTT1=
EXTT2=
EXTT3=
EXTT4=
EXTT5=
EXTT6=
EXTT7=
EXTT8=
EXTT9=
PLAYORDER=
